<?xml version="1.0" standalone="no"?>
<!DOCTYPE svg PUBLIC "-//W3C//DTD SVG 1.1//EN" "http://www.w3.org/Graphics/SVG/1.1/DTD/svg11.dtd" >
<svg xmlns="http://www.w3.org/2000/svg">
<metadata></metadata>
<defs>
<font id="couturebold" horiz-adv-x="1517" >
<font-face units-per-em="2048" ascent="1462" descent="-586" />
<missing-glyph horiz-adv-x="620" />
<glyph horiz-adv-x="0" />
<glyph horiz-adv-x="682" />
<glyph unicode=" "  horiz-adv-x="620" />
<glyph unicode="&#x09;" horiz-adv-x="620" />
<glyph unicode="&#xa0;" horiz-adv-x="620" />
<glyph unicode="#" horiz-adv-x="2074" d="M113 -2v1468h368l654 -913v913h272v-1468h-272l-768 1071v-1071h-254zM1483 1217q0 103 71.5 174t174.5 71q100 0 171.5 -71.5t71.5 -173.5q0 -103 -71 -173.5t-172 -70.5q-103 0 -174.5 70t-71.5 174zM1583 1217q0 -58 43.5 -103t102.5 -45t100 43.5t41 104.5 q0 60 -40.5 102.5t-100.5 42.5t-103 -42.5t-43 -102.5z" />
<glyph unicode="$" horiz-adv-x="2820" d="M123 1188q127 220 343 351.5t476 131.5q243 0 455 -121q221 121 456 121q259 0 481.5 -133t342.5 -350q-101 -57 -143.5 -79t-127.5 -60q-84 144 -230 230.5t-323 86.5q-82 0 -196 -31q225 -265 225 -604q0 -342 -225 -604q114 -31 196 -31q172 0 317.5 84t225.5 226 q64 -33 137 -71t136 -71q-125 -217 -341 -345t-475 -128q-235 0 -456 121q-212 -121 -455 -121q-258 0 -474 128t-341 345q53 29 91 49t85 44t94 49q88 -144 231.5 -227t313.5 -83q86 0 195 31q-219 258 -219 604q0 342 219 604q-108 31 -195 31q-176 0 -320.5 -86 t-228.5 -231q-61 26 -102 46.5t-64.5 33.5t-103.5 59zM1225 731q0 -259 172 -440q180 190 180 440q0 248 -180 438q-172 -181 -172 -438z" />
<glyph unicode="0" horiz-adv-x="1120" d="M66 709q0 382 123 563.5t380 181.5t380.5 -181.5t123.5 -563.5t-123.5 -565t-380.5 -183t-380 183t-123 565zM360 709q0 -288 44.5 -403.5t164.5 -115.5t164.5 115.5t44.5 403.5t-44 402t-165 114t-165 -114t-44 -402z" />
<glyph unicode="1" horiz-adv-x="665" d="M61 1157v184l506 107v-1448h-286v1157h-220z" />
<glyph unicode="2" horiz-adv-x="1103" d="M57 0v283q57 91 334 295q194 140 248 190q93 85 112 170q7 31 7 68q0 82 -52.5 144t-148.5 62q-42 0 -75.5 -10t-55 -25t-37 -39.5t-23.5 -45.5t-12 -52t-5 -51t-1 -49h-278q0 98 20 178t51 132t75.5 91.5t87 60t91.5 33t82.5 16t67.5 3.5q141 0 253 -52.5t179 -158.5 t67 -248q0 -74 -19 -139t-45 -109.5t-71.5 -90t-79.5 -71.5t-88 -63q-22 -15 -60.5 -42.5t-55 -39.5t-46 -33t-42.5 -31.5t-34 -26.5t-31 -26t-22.5 -23t-20 -24t-13.5 -22h631v-254h-990z" />
<glyph unicode="3" horiz-adv-x="1122" d="M55 446h281l-2 -2q0 -29 3.5 -57t16.5 -65.5t34.5 -65t62.5 -47t96 -19.5q92 0 153.5 62t61.5 178q0 36 -8 66t-24.5 50.5t-35 36.5t-46 25.5t-50.5 15.5t-55 8.5t-54.5 3.5t-52.5 1v205h45q35 0 60.5 2t62.5 13t61 30.5t42 58t18 92.5q0 20 -3.5 41t-15.5 48.5t-30.5 48 t-53 35t-79.5 14.5q-197 0 -197 -238h-266q0 103 29.5 187.5t87.5 147.5t151 97.5t213 34.5q62 0 122 -12.5t120.5 -42.5t106 -75t74 -116t28.5 -159q0 -101 -51.5 -172t-122.5 -105v-4q21 -6 43 -17t55.5 -37.5t58.5 -61.5t43.5 -93.5t18.5 -128.5q0 -205 -138 -337 t-358 -132q-37 0 -72 2.5t-88 14t-97.5 30.5t-92 56t-80.5 86.5t-54.5 125.5t-21.5 170z" />
<glyph unicode="4" horiz-adv-x="1140" d="M55 322v247v666h307v-680h269v899h284v-885h164v-247h-164v-322h-286v322h-574z" />
<glyph unicode="5" horiz-adv-x="1116" d="M55 389h287q23 -199 203 -199q102 0 159.5 76.5t57.5 196.5q0 108 -53.5 184t-159.5 76q-138 0 -193 -105l-256 13v799h899v-242h-628v-316q84 80 245 80q61 0 121.5 -16.5t118.5 -53t102.5 -89.5t71.5 -133.5t27 -176.5q0 -54 -10 -108.5t-32 -115t-62.5 -112.5 t-96.5 -94.5t-140.5 -67t-187.5 -24.5q-88 0 -168.5 26.5t-147.5 77t-109 134.5t-48 190z" />
<glyph unicode="6" horiz-adv-x="1116" d="M63 692q0 70 3.5 130t16.5 141t35 145.5t63 131.5t96 112t139 73.5t188 28.5q64 0 155.5 -23t141.5 -71q61 -61 88 -114.5t47 -160.5h-284q-6 64 -48.5 102t-119.5 38q-54 0 -96 -24.5t-67 -62t-42 -93.5t-24.5 -107.5t-10.5 -114.5l4 -4q86 121 273 121q88 0 162 -26 t125.5 -69.5t87.5 -101t52.5 -121.5t16.5 -130q0 -238 -131.5 -384.5t-343.5 -146.5q-92 0 -167.5 22t-129.5 59.5t-95 93t-66.5 116.5t-41 137t-21.5 148t-6 155zM350 461q0 -120 62.5 -195.5t165.5 -75.5q87 0 143.5 69t56.5 208q0 66 -20 115.5t-52 76t-66.5 39.5 t-70.5 13q-90 0 -154.5 -62t-64.5 -188z" />
<glyph unicode="7" horiz-adv-x="1122" d="M51 1176v254h1030v-222q-10 -22 -85 -180t-133.5 -284.5t-148 -337.5t-163.5 -406h-340q130 318 320.5 739t197.5 437h-678z" />
<glyph unicode="8" horiz-adv-x="1134" d="M66 403q0 23 0.5 38.5t5 48t12 57.5t24 59t39 61t58.5 55.5t82 49.5q-176 87 -176 285q0 181 128.5 289t323.5 108q110 0 198.5 -30.5t145.5 -83t87 -120.5t30 -145q0 -203 -168 -293q74 -38 119 -81t71.5 -110t26.5 -159q0 -59 -15 -120t-52 -125t-92.5 -113.5t-145 -81 t-199.5 -31.5q-109 0 -196.5 27t-143.5 71t-94 102.5t-53.5 118.5t-15.5 123zM360 422q0 -105 57 -168.5t154 -63.5q54 0 95.5 21.5t65 56.5t35 73.5t11.5 78.5q0 41 -11.5 79t-35.5 72.5t-67 55t-99 20.5q-85 0 -145 -57.5t-60 -167.5zM385 1044q0 -71 49.5 -125.5 t136.5 -54.5q84 0 131.5 50t47.5 130q0 84 -48 132.5t-120 48.5q-95 0 -146 -49.5t-51 -131.5z" />
<glyph unicode="9" horiz-adv-x="1159" d="M61 932q0 256 136.5 389t359.5 133q81 0 150 -19.5t118 -50t88.5 -78.5t64.5 -94.5t43 -108.5t27 -109.5t14 -109.5t6 -96t1 -81q0 -164 -30 -294t-80 -213.5t-119.5 -138t-143 -77.5t-155.5 -23q-186 0 -310 101.5t-141 273.5h285v-2q12 -73 56 -108.5t112 -35.5 q46 0 86.5 21.5t76 66.5t56 126.5t20.5 191.5l-4 4q-83 -123 -276 -123q-135 0 -237 63.5t-153 165.5t-51 226zM348 973q0 -79 17.5 -133.5t49.5 -82t67.5 -39t80.5 -11.5q39 0 75.5 14t67.5 42.5t49.5 76.5t18.5 110q0 127 -55.5 198t-163.5 71q-25 0 -50 -5.5t-54.5 -22 t-51.5 -42.5t-36.5 -71.5t-14.5 -104.5z" />
<glyph unicode="A" horiz-adv-x="1652" d="M2 0l664 1460h323l653 -1460h-311l-143 324h-739l-154 -324h-293zM586 621h485l-237 565h-3z" />
<glyph unicode="B" horiz-adv-x="1441" d="M141 0v1462h688q109 0 191.5 -18.5t146 -60t96.5 -112.5t33 -171q0 -210 -198 -305q132 -37 200 -134t68 -237q0 -107 -43 -190.5t-116.5 -133.5t-164 -75t-192.5 -25h-709zM463 250h344q237 0 237 192q0 209 -231 209h-350v-401zM463 870h325q91 0 144 43t53 131 q0 168 -221 168h-301v-342z" />
<glyph unicode="C" d="M63 737q0 150 59 287t158 236.5t236.5 159t288.5 59.5q206 0 376.5 -103.5t266.5 -275.5q-128 -67 -274 -139q-55 95 -153.5 152.5t-215.5 57.5q-118 0 -218 -58.5t-158 -158.5t-58 -217q0 -180 127 -307t307 -127q122 0 223.5 61t157.5 166q47 -24 98 -52t83.5 -44 t92.5 -43q-96 -181 -269 -288t-386 -107q-202 0 -372.5 99t-270 269.5t-99.5 372.5z" />
<glyph unicode="D" d="M141 0v1462h631q144 0 264 -45.5t210 -134t140 -227.5t50 -316q0 -161 -41.5 -294.5t-122.5 -233.5t-209 -155.5t-291 -55.5h-631zM463 270h287q73 0 136 24t115.5 73.5t82.5 137t30 204.5q0 115 -22 201t-70 150.5t-131 98t-199 33.5h-229v-922z" />
<glyph unicode="E" horiz-adv-x="1327" d="M104 2v1466h1067v-270h-755v-330h667v-284h-667v-312h825v-270h-1137z" />
<glyph unicode="F" horiz-adv-x="1214" d="M104 0v1468h1067v-270h-755v-330h667v-284h-667v-312v-272h-312z" />
<glyph unicode="G" horiz-adv-x="1554" d="M23 733q0 153 60 293t161 241.5t241 161.5t293 60q208 0 385 -105.5t277 -279.5q-63 -32 -283 -143q-58 100 -158 157.5t-221 57.5q-184 0 -313 -129t-129 -314q0 -186 128.5 -314t313.5 -128q127 0 235.5 59.5t151.5 161.5h-32q-31 0 -142.5 -1t-154.5 -1q-58 0 -58 2 v270q98 0 357 -1t391 -1q0 -43 -4 -106t-25 -162t-55 -143q-95 -179 -273.5 -286.5t-390.5 -107.5q-153 0 -293 60t-241 161.5t-161 242t-60 294.5z" />
<glyph unicode="H" d="M113 4v1466h313v-530h678v526h315v-1462h-315v623h-678v-623h-313z" />
<glyph unicode="I" horiz-adv-x="604" d="M141 0v1462h322v-1462h-322z" />
<glyph unicode="J" horiz-adv-x="1138" d="M29 369l297 49q0 -91 37.5 -136.5t142.5 -45.5q35 0 62.5 8.5t45.5 20t30.5 33.5t18.5 39t9 46t3.5 45.5t0.5 46.5v987h321v-1001q0 -46 -4 -87t-16.5 -93t-33.5 -94.5t-58.5 -85t-87 -71.5t-123.5 -47t-164 -18q-128 0 -236.5 48.5t-173.5 144.5q-33 45 -52 109t-19 102 z" />
<glyph unicode="K" horiz-adv-x="1478" d="M88 0v1464h328v-829l571 829h399l-550 -829l594 -635h-443l-381 410l-190 -265v-145h-328z" />
<glyph unicode="L" horiz-adv-x="1214" d="M111 10v1458h315v-1187h750v-271h-1065z" />
<glyph unicode="M" horiz-adv-x="1857" d="M176 0v1462h418l338 -645l332 645h424v-1462h-302v1034h-4l-325 -665h-248l-324 655h-4v-1024h-305z" />
<glyph unicode="N" d="M113 -2v1468h368l654 -913v913h272v-1468h-272l-742 1012v-1012h-280z" />
<glyph unicode="O" horiz-adv-x="1593" d="M37 737q0 155 60 295.5t161 241.5t241 161t294 60q205 0 379 -101t276 -276t102 -381q0 -205 -102 -379t-276 -275t-379 -101q-154 0 -294 59.5t-241 160.5t-161 241t-60 294zM346 737q0 -183 132 -314.5t315 -131.5t312.5 131.5t129.5 314.5q0 184 -130 316.5 t-312 132.5q-120 0 -223 -61t-163.5 -164.5t-60.5 -223.5z" />
<glyph unicode="P" horiz-adv-x="1366" d="M141 0v1462h660q107 0 193.5 -26t143.5 -70.5t96 -105t56 -127t17 -140.5t-17 -140.5t-56 -127t-96 -105t-143.5 -70.5t-193.5 -26h-338v-524h-322zM463 774h250q48 0 86 5t76 19t63.5 37.5t41 63.5t15.5 94t-15.5 94t-41 63.5t-63.5 37.5t-76 19t-86 5h-250v-438z" />
<glyph unicode="Q" horiz-adv-x="1593" d="M43 743q0 153 59 292t158.5 238.5t237 158.5t288.5 59q153 0 292 -59t238.5 -158.5t158.5 -238.5t59 -292q0 -131 -38.5 -225t-121.5 -182h158l2 -305h-541q-102 -31 -207 -31q-151 0 -288.5 59t-237 158.5t-158.5 237t-59 288.5zM348 743q0 -179 128.5 -305.5 t309.5 -126.5q183 0 310 126t127 306q0 183 -127 310t-310 127q-181 0 -309.5 -127.5t-128.5 -309.5z" />
<glyph unicode="R" horiz-adv-x="1478" d="M141 -2v1464h660q107 0 194 -26t145 -70.5t97.5 -105t56.5 -127t17 -140.5q0 -104 -35 -194t-115.5 -161.5t-197.5 -96.5h12l409 -543h-393l-368 526h-158v-526h-324zM465 772h250q50 0 88.5 5t76 19.5t61.5 38.5t39 64t15 94q0 69 -21 114t-62.5 67t-86.5 30t-110 8 h-250v-440z" />
<glyph unicode="S" horiz-adv-x="1329" d="M49 485l311 -51q37 -219 324 -219q48 0 93 8t91 26.5t73.5 56.5t27.5 91q0 49 -30 86t-80 60t-115.5 41t-137.5 35.5t-144.5 38t-138 53t-115.5 76t-80 112t-30 156.5q0 108 48 195t127 139.5t174.5 80t197.5 27.5q94 0 178.5 -16t159.5 -52.5t129.5 -90.5t86.5 -133.5 t32 -178.5l-311 45q-9 41 -27 72t-43.5 49.5t-50.5 30t-58.5 16.5t-55.5 6.5t-54 1.5q-56 0 -103.5 -15t-82.5 -54t-35 -97q0 -28 5.5 -47.5t27 -38.5t47 -32t81.5 -31t114 -32.5t161 -39.5q134 -33 204 -68q230 -114 230 -358q0 -208 -159 -338.5t-449 -130.5 q-100 0 -190.5 19t-170 60.5t-137.5 101.5t-91.5 147t-33.5 192z" />
<glyph unicode="T" horiz-adv-x="1337" d="M47 1192v268h1247v-270h-460v-1190h-322v1192h-465z" />
<glyph unicode="U" d="M135 553v909h322v-909q0 -53 6 -95t25 -85.5t51.5 -72t88 -46.5t130.5 -18q168 0 235.5 74.5t67.5 242.5v909h321v-909q0 -291 -162.5 -439.5t-461.5 -148.5q-302 0 -462.5 147t-160.5 441z" />
<glyph unicode="V" horiz-adv-x="1290" d="M-16 1462h331l326 -1028h4l330 1028h332l-486 -1462h-362z" />
<glyph unicode="W" horiz-adv-x="1933" d="M6 1462h322l207 -999l28 4l254 995h301l250 -1007l29 -2l215 1009h315l-393 -1462h-320l-247 995h-4l-244 -995h-326z" />
<glyph unicode="X" horiz-adv-x="1366" d="M-12 0l512 766l-471 696h372l287 -467l297 467h352l-469 -698l510 -764h-383l-307 502l-338 -502h-362z" />
<glyph unicode="Y" horiz-adv-x="1366" d="M-18 1462h362l342 -577l340 577h358l-542 -901v-561h-322v569z" />
<glyph unicode="Z" horiz-adv-x="1327" d="M47 0v254l784 938h-722v270h1151v-254l-785 -938h805v-270h-1233z" />
<glyph unicode="a" horiz-adv-x="1652" d="M2 0l664 1460h323l653 -1460h-311l-143 324h-739l-154 -324h-293zM586 621h485l-237 565h-3z" />
<glyph unicode="b" horiz-adv-x="1423" d="M109 0v1462h688q109 0 191.5 -18.5t146 -60t96.5 -112.5t33 -171q0 -109 -49.5 -183t-149.5 -122q132 -37 200 -134t68 -237q0 -107 -43 -190.5t-116.5 -133.5t-164 -75t-192.5 -25h-708zM430 250h344q238 0 238 192q0 209 -232 209h-350v-401zM430 870h326 q91 0 143.5 42.5t52.5 131.5q0 168 -221 168h-301v-342z" />
<glyph unicode="c" d="M63 737q0 150 59 287t158 236.5t236.5 159t288.5 59.5q206 0 376.5 -103.5t266.5 -275.5q-128 -67 -274 -139q-55 95 -153.5 152.5t-215.5 57.5q-118 0 -218 -58.5t-158 -158.5t-58 -217q0 -180 127 -307t307 -127q122 0 223.5 61t157.5 166q47 -24 98 -52t83.5 -44 t92.5 -43q-96 -181 -269 -288t-386 -107q-202 0 -372.5 99t-270 269.5t-99.5 372.5z" />
<glyph unicode="d" horiz-adv-x="1529" d="M141 0v1462h631q144 0 264 -45.5t210 -134t140 -227.5t50 -316q0 -161 -41.5 -294.5t-122.5 -233.5t-209 -155.5t-291 -55.5h-631zM463 270h287q73 0 136 24t115.5 73.5t82.5 137t30 204.5q0 115 -22 201t-70 150.5t-131 98t-199 33.5h-229v-922z" />
<glyph unicode="e" horiz-adv-x="1331" d="M104 2v1466h1067v-270h-755v-330h667v-284h-667v-312h825v-270h-1137z" />
<glyph unicode="f" horiz-adv-x="1255" d="M104 0v1468h1067v-270h-755v-330h667v-284h-667v-312v-272h-312z" />
<glyph unicode="g" horiz-adv-x="1554" d="M23 733q0 153 60 293t161 241.5t241 161.5t293 60q208 0 385 -105.5t277 -279.5q-63 -32 -283 -143q-58 100 -158 157.5t-221 57.5q-184 0 -313 -129t-129 -314q0 -186 128.5 -314t313.5 -128q127 0 235.5 59.5t151.5 161.5h-32q-31 0 -142.5 -1t-154.5 -1q-58 0 -58 2 v270q98 0 357 -1t391 -1q0 -43 -4 -106t-25 -162t-55 -143q-95 -179 -273.5 -286.5t-390.5 -107.5q-153 0 -293 60t-241 161.5t-161 242t-60 294.5z" />
<glyph unicode="h" horiz-adv-x="1533" d="M113 4v1466h313v-530h678v526h315v-1462h-315v623h-678v-623h-313z" />
<glyph unicode="i" horiz-adv-x="589" d="M141 0v1462h322v-1462h-322z" />
<glyph unicode="j" horiz-adv-x="1138" d="M29 369l297 49q0 -91 37.5 -136.5t142.5 -45.5q35 0 62.5 8.5t45.5 20t30.5 33.5t18.5 39t9 46t3.5 45.5t0.5 46.5v987h321v-1001q0 -46 -4 -87t-16.5 -93t-33.5 -94.5t-58.5 -85t-87 -71.5t-123.5 -47t-164 -18q-128 0 -236.5 48.5t-173.5 144.5q-33 45 -52 109t-19 102 z" />
<glyph unicode="k" horiz-adv-x="1478" d="M88 0v1464h328v-829l571 829h399l-550 -829l594 -635h-443l-381 410l-190 -265v-145h-328z" />
<glyph unicode="l" horiz-adv-x="1267" d="M111 10v1458h315v-1187h750v-271h-1065z" />
<glyph unicode="m" horiz-adv-x="1857" d="M176 0v1462h418l338 -645l332 645h424v-1462h-302v1034h-4l-325 -665h-248l-324 655h-4v-1024h-305z" />
<glyph unicode="n" d="M113 -2v1468h368l654 -913v913h272v-1468h-272l-742 1012v-1012h-280z" />
<glyph unicode="o" horiz-adv-x="1595" d="M37 737q0 155 60 295.5t161 241.5t241 161t294 60q205 0 379 -101t276 -276t102 -381q0 -205 -102 -379t-276 -275t-379 -101q-154 0 -294 59.5t-241 160.5t-161 241t-60 294zM346 737q0 -183 132 -314.5t315 -131.5t312.5 131.5t129.5 314.5q0 184 -130 316.5 t-312 132.5q-120 0 -223 -61t-163.5 -164.5t-60.5 -223.5z" />
<glyph unicode="p" horiz-adv-x="1366" d="M141 0v1462h660q107 0 193.5 -26t143.5 -70.5t96 -105t56 -127t17 -140.5t-17 -140.5t-56 -127t-96 -105t-143.5 -70.5t-193.5 -26h-338v-524h-322zM463 774h250q48 0 86 5t76 19t63.5 37.5t41 63.5t15.5 94t-15.5 94t-41 63.5t-63.5 37.5t-76 19t-86 5h-250v-438z" />
<glyph unicode="q" horiz-adv-x="1593" d="M43 743q0 153 59 292t158.5 238.5t237 158.5t288.5 59q153 0 292 -59t238.5 -158.5t158.5 -238.5t59 -292q0 -131 -38.5 -225t-121.5 -182h158l2 -305h-541q-102 -31 -207 -31q-151 0 -288.5 59t-237 158.5t-158.5 237t-59 288.5zM348 743q0 -179 128.5 -305.5 t309.5 -126.5q183 0 310 126t127 306q0 183 -127 310t-310 127q-181 0 -309.5 -127.5t-128.5 -309.5z" />
<glyph unicode="r" horiz-adv-x="1478" d="M141 -2v1464h660q107 0 194 -26t145 -70.5t97.5 -105t56.5 -127t17 -140.5q0 -104 -35 -194t-115.5 -161.5t-197.5 -96.5h12l409 -543h-393l-368 526h-158v-526h-324zM465 772h250q50 0 88.5 5t76 19.5t61.5 38.5t39 64t15 94q0 69 -21 114t-62.5 67t-86.5 30t-110 8 h-250v-440z" />
<glyph unicode="s" horiz-adv-x="1329" d="M49 485l311 -51q37 -219 324 -219q48 0 93 8t91 26.5t73.5 56.5t27.5 91q0 49 -30 86t-80 60t-115.5 41t-137.5 35.5t-144.5 38t-138 53t-115.5 76t-80 112t-30 156.5q0 108 48 195t127 139.5t174.5 80t197.5 27.5q94 0 178.5 -16t159.5 -52.5t129.5 -90.5t86.5 -133.5 t32 -178.5l-311 45q-9 41 -27 72t-43.5 49.5t-50.5 30t-58.5 16.5t-55.5 6.5t-54 1.5q-56 0 -103.5 -15t-82.5 -54t-35 -97q0 -28 5.5 -47.5t27 -38.5t47 -32t81.5 -31t114 -32.5t161 -39.5q134 -33 204 -68q230 -114 230 -358q0 -208 -159 -338.5t-449 -130.5 q-100 0 -190.5 19t-170 60.5t-137.5 101.5t-91.5 147t-33.5 192z" />
<glyph unicode="t" horiz-adv-x="1337" d="M47 1192v268h1247v-270h-460v-1190h-322v1192h-465z" />
<glyph unicode="u" horiz-adv-x="1513" d="M135 553v909h322v-909q0 -53 6 -95t25 -85.5t51.5 -72t88 -46.5t130.5 -18q168 0 235.5 74.5t67.5 242.5v909h321v-909q0 -291 -162.5 -439.5t-461.5 -148.5q-302 0 -462.5 147t-160.5 441z" />
<glyph unicode="v" horiz-adv-x="1288" d="M-16 1462h331l326 -1028h4l330 1028h332l-486 -1462h-362z" />
<glyph unicode="w" horiz-adv-x="1927" d="M6 1462h322l207 -999l28 4l254 995h301l250 -1007l29 -2l215 1009h315l-393 -1462h-320l-247 995h-4l-244 -995h-326z" />
<glyph unicode="x" horiz-adv-x="1370" d="M-12 0l512 766l-471 696h372l287 -467l297 467h352l-469 -698l510 -764h-383l-307 502l-338 -502h-362z" />
<glyph unicode="y" horiz-adv-x="1370" d="M-18 1462h362l342 -577l340 577h358l-542 -901v-561h-322v569z" />
<glyph unicode="z" horiz-adv-x="1327" d="M47 0v254l784 938h-722v270h1151v-254l-785 -938h805v-270h-1233z" />
<glyph unicode="&#xa9;" horiz-adv-x="1638" d="M2 815q0 221 109.5 408.5t297 297t408.5 109.5t408.5 -109.5t297 -297t109.5 -408.5t-109.5 -408.5t-297 -297t-408.5 -109.5t-408.5 109.5t-297 297t-109.5 408.5zM172 815q0 -177 86 -327.5t234.5 -238t324.5 -87.5q132 0 253 52t209.5 139t141 208.5t52.5 253.5 q0 176 -89 324.5t-240 234.5t-327 86t-324.5 -86t-234.5 -234.5t-86 -324.5zM334 815q0 141 69.5 261t187 189.5t253.5 69.5q148 0 268.5 -72t187.5 -196q-31 -16 -86 -42t-110 -56q-44 70 -110 110.5t-150 40.5q-121 0 -208 -89t-87 -216t87 -216t208 -89q86 0 156 43.5 t114 118.5q112 -63 186 -99q-63 -126 -183.5 -202t-272.5 -76q-136 0 -253.5 69.5t-187 189.5t-69.5 261z" />
<glyph unicode="&#xae;" horiz-adv-x="1638" d="M18 811q0 164 64 313.5t172 257.5t257.5 172t313.5 64q218 0 403.5 -108t293.5 -294t108 -405q0 -218 -108 -403.5t-293.5 -293.5t-403.5 -108q-219 0 -405 108t-294 293.5t-108 403.5zM180 811q0 -174 86 -322t234.5 -234.5t324.5 -86.5q175 0 323 86.5t234 234.5 t86 322q0 176 -86 324.5t-234 234.5t-323 86q-176 0 -324.5 -86t-234.5 -234.5t-86 -324.5zM438 346v932h422q83 0 146.5 -25t101 -67.5t56 -94.5t18.5 -110q0 -104 -55 -182.5t-166 -106.5h8l241 -346h-231l-234 334h-102v-334h-205zM643 838h160q86 0 133 29.5t47 113.5 q0 43 -13.5 71.5t-40.5 42t-56 18.5t-70 5h-160v-280z" />
<glyph unicode="&#x2000;" horiz-adv-x="835" />
<glyph unicode="&#x2001;" horiz-adv-x="1671" />
<glyph unicode="&#x2002;" horiz-adv-x="835" />
<glyph unicode="&#x2003;" horiz-adv-x="1671" />
<glyph unicode="&#x2004;" horiz-adv-x="557" />
<glyph unicode="&#x2005;" horiz-adv-x="417" />
<glyph unicode="&#x2006;" horiz-adv-x="278" />
<glyph unicode="&#x2007;" horiz-adv-x="278" />
<glyph unicode="&#x2008;" horiz-adv-x="208" />
<glyph unicode="&#x2009;" horiz-adv-x="334" />
<glyph unicode="&#x200a;" horiz-adv-x="92" />
<glyph unicode="&#x202f;" horiz-adv-x="334" />
<glyph unicode="&#x205f;" horiz-adv-x="417" />
<glyph unicode="&#x2122;" horiz-adv-x="2048" d="M127 1298v164h688v-164h-240v-680h-208v680h-240zM924 616v846h241l193 -585l194 585h246v-846h-160v601l-208 -601h-144l-209 592v-592h-153z" />
<glyph unicode="&#x25fc;" horiz-adv-x="1464" d="M0 0v1464h1464v-1464h-1464z" />
</font>
</defs>
</svg>
